<svg width="148" height="24" viewBox="0 0 148 24" fill="none" xmlns="http://www.w3.org/2000/svg">
<path d="M16.75 6.6V3.25H16.6C13.8 3.375 11.475 5.175 10.075 6.6L10 6.675L9.925 6.6C8.5 5.175 6.2 3.375 3.4 3.25H3.25V6.6H0V12.375C0 13.775 0.05 15.175 0.15 16.325C0.241578 17.4343 0.728711 18.4737 1.52261 19.2538C2.3165 20.034 3.3643 20.5028 4.475 20.575C6.25 20.675 8.125 20.75 10 20.75C11.875 20.75 13.75 20.675 15.525 20.55C16.6357 20.4778 17.6835 20.009 18.4774 19.2288C19.2713 18.4487 19.7584 17.4093 19.85 16.3C19.95 15.15 20 13.75 20 12.35V6.6H16.75ZM16.75 12.375C16.75 13.7 16.7 15 16.6 16.05C16.525 16.725 15.975 17.275 15.3 17.3C11.7711 17.55 8.22891 17.55 4.7 17.3C4.025 17.275 3.45 16.725 3.4 16.05C3.3 15 3.25 13.675 3.25 12.375V6.6C5.6 6.7 7.95 9.225 8.65 10.2L10 12.075L11.35 10.2C12.05 9.2 14.4 6.7 16.75 6.6V12.375Z" fill="#556EF2"/>
<path d="M30.1222 23.3182C29.142 23.3182 28.3016 23.1832 27.6009 22.9134C26.9048 22.6482 26.3509 22.286 25.9389 21.8267C25.527 21.3674 25.2595 20.8513 25.1364 20.2784L27.9347 19.902C28.0199 20.1198 28.1548 20.3234 28.3395 20.5128C28.5241 20.7022 28.768 20.8537 29.071 20.9673C29.3788 21.0857 29.7528 21.1449 30.1932 21.1449C30.8513 21.1449 31.3935 20.9839 31.8196 20.6619C32.2505 20.3447 32.4659 19.812 32.4659 19.0639V17.0682H32.3381C32.2055 17.3712 32.0066 17.6577 31.7415 17.9276C31.4763 18.1974 31.1354 18.4176 30.7188 18.5881C30.3021 18.7585 29.8049 18.8438 29.2273 18.8438C28.4081 18.8438 27.6624 18.6544 26.9901 18.2756C26.3224 17.892 25.7898 17.3073 25.392 16.5213C24.9991 15.7306 24.8026 14.7315 24.8026 13.5241C24.8026 12.2884 25.0038 11.2562 25.4062 10.4276C25.8087 9.59896 26.3438 8.97869 27.0114 8.56676C27.6837 8.15483 28.42 7.94886 29.2202 7.94886C29.831 7.94886 30.3423 8.05303 30.7543 8.26136C31.1662 8.46496 31.4976 8.72064 31.7486 9.02841C32.0043 9.33144 32.2008 9.62973 32.3381 9.9233H32.4517V8.09091H35.456V19.1065C35.456 20.0346 35.2287 20.8111 34.7741 21.4361C34.3196 22.0611 33.6899 22.5298 32.8849 22.8423C32.0848 23.1596 31.1638 23.3182 30.1222 23.3182ZM30.1861 16.571C30.6738 16.571 31.0857 16.4503 31.4219 16.2088C31.7628 15.9626 32.0232 15.6122 32.2031 15.1577C32.3878 14.6984 32.4801 14.1491 32.4801 13.5099C32.4801 12.8707 32.3902 12.3168 32.2102 11.848C32.0303 11.3745 31.7699 11.0076 31.429 10.7472C31.0881 10.4867 30.6738 10.3565 30.1861 10.3565C29.6889 10.3565 29.2699 10.4915 28.929 10.7614C28.5881 11.0265 28.33 11.3958 28.1548 11.8693C27.9796 12.3428 27.892 12.8897 27.892 13.5099C27.892 14.1397 27.9796 14.6842 28.1548 15.1435C28.3348 15.598 28.5928 15.9508 28.929 16.2017C29.2699 16.4479 29.6889 16.571 30.1861 16.571ZM39.7315 23.0909C39.348 23.0909 38.9882 23.0601 38.652 22.9986C38.3205 22.9418 38.0459 22.8684 37.8281 22.7784L38.5099 20.5199C38.8651 20.6288 39.1847 20.688 39.4688 20.6974C39.7576 20.7069 40.0062 20.6406 40.2145 20.4986C40.4276 20.3565 40.6004 20.1151 40.733 19.7741L40.9105 19.3125L36.9972 8.09091H40.179L42.4375 16.1023H42.5511L44.831 8.09091H48.0341L43.794 20.179C43.5904 20.7661 43.3134 21.2775 42.9631 21.7131C42.6174 22.1534 42.1795 22.492 41.6491 22.7287C41.1188 22.9702 40.4796 23.0909 39.7315 23.0909ZM52.4002 19.206C51.7042 19.206 51.0839 19.0852 50.5394 18.8438C49.9949 18.5975 49.564 18.2353 49.2468 17.7571C48.9343 17.2741 48.7781 16.6728 48.7781 15.9531C48.7781 15.3471 48.8893 14.8381 49.1119 14.4261C49.3344 14.0142 49.6374 13.6828 50.021 13.4318C50.4045 13.1809 50.8401 12.9915 51.3278 12.8636C51.8202 12.7358 52.3363 12.6458 52.8761 12.5938C53.5105 12.5275 54.0219 12.4659 54.4102 12.4091C54.7984 12.3475 55.0801 12.2576 55.2553 12.1392C55.4305 12.0208 55.5181 11.8456 55.5181 11.6136V11.571C55.5181 11.1212 55.3761 10.7732 55.092 10.527C54.8126 10.2808 54.4149 10.1577 53.8988 10.1577C53.3543 10.1577 52.921 10.2784 52.5991 10.5199C52.2771 10.7566 52.064 11.0549 51.9599 11.4148L49.1616 11.1875C49.3036 10.5246 49.583 9.9517 49.9996 9.46875C50.4163 8.98106 50.9537 8.60701 51.6119 8.34659C52.2747 8.08144 53.0418 7.94886 53.913 7.94886C54.5191 7.94886 55.0991 8.01989 55.6531 8.16193C56.2118 8.30398 56.7066 8.52415 57.1374 8.82244C57.573 9.12074 57.9163 9.50426 58.1673 9.97301C58.4182 10.437 58.5437 10.9934 58.5437 11.642V19H55.6744V17.4872H55.5891C55.4139 17.8281 55.1796 18.1288 54.886 18.3892C54.5924 18.6449 54.2397 18.8461 53.8278 18.9929C53.4158 19.1349 52.94 19.206 52.4002 19.206ZM53.2667 17.1179C53.7118 17.1179 54.1048 17.0303 54.4457 16.8551C54.7866 16.6752 55.0541 16.4337 55.2482 16.1307C55.4424 15.8277 55.5394 15.4844 55.5394 15.1009V13.9432C55.4447 14.0047 55.3145 14.0616 55.1488 14.1136C54.9878 14.161 54.8055 14.206 54.6019 14.2486C54.3983 14.2865 54.1947 14.322 53.9911 14.3551C53.7875 14.3835 53.6029 14.4096 53.4371 14.4332C53.082 14.4853 52.7719 14.5682 52.5067 14.6818C52.2416 14.7955 52.0356 14.9493 51.8888 15.1435C51.7421 15.3329 51.6687 15.5696 51.6687 15.8537C51.6687 16.2656 51.8178 16.5805 52.1161 16.7983C52.4192 17.0114 52.8027 17.1179 53.2667 17.1179ZM63.9165 12.6932V19H60.891V8.09091H63.7745V10.0156H63.9023C64.1438 9.38116 64.5487 8.87926 65.1168 8.50994C65.685 8.13589 66.3739 7.94886 67.1836 7.94886C67.9412 7.94886 68.6017 8.11458 69.1651 8.44602C69.7286 8.77746 70.1665 9.25095 70.479 9.86648C70.7915 10.4773 70.9478 11.2064 70.9478 12.054V19H67.9222V12.5938C67.927 11.9261 67.7565 11.4053 67.4109 11.0312C67.0652 10.6525 66.5894 10.4631 65.9833 10.4631C65.5761 10.4631 65.2163 10.5507 64.9038 10.7259C64.596 10.901 64.3545 11.1567 64.1793 11.4929C64.0089 11.8243 63.9213 12.2244 63.9165 12.6932Z" fill="#556EF2"/>
<path d="M81.1236 10.4844L79.9659 10.8111C79.8523 10.4844 79.6913 10.1884 79.483 9.9233C79.2746 9.65814 79.0024 9.44744 78.6662 9.29119C78.3348 9.13494 77.9228 9.05682 77.4304 9.05682C76.6918 9.05682 76.0857 9.23201 75.6122 9.58239C75.1387 9.93277 74.902 10.3849 74.902 10.9389C74.902 11.4077 75.063 11.7888 75.3849 12.0824C75.7116 12.3712 76.2135 12.6009 76.8906 12.7713L78.5384 13.1761C79.4522 13.3987 80.1364 13.7514 80.5909 14.2344C81.0502 14.7173 81.2798 15.3234 81.2798 16.0526C81.2798 16.6681 81.1094 17.215 80.7685 17.6932C80.4276 18.1714 79.9517 18.5478 79.3409 18.8224C78.7348 19.0923 78.0317 19.2273 77.2315 19.2273C76.1662 19.2273 75.2879 18.9882 74.5966 18.5099C73.9053 18.027 73.4626 17.331 73.2685 16.4219L74.483 16.1236C74.6392 16.7723 74.9446 17.2623 75.3991 17.5938C75.8584 17.9252 76.4621 18.0909 77.2102 18.0909C78.0483 18.0909 78.7183 17.9039 79.2202 17.5298C79.7221 17.151 79.973 16.6776 79.973 16.1094C79.973 15.669 79.8262 15.2997 79.5327 15.0014C79.2391 14.6984 78.794 14.4759 78.1974 14.3338L76.4148 13.9077C75.4678 13.6804 74.767 13.3205 74.3125 12.8281C73.858 12.3357 73.6307 11.7249 73.6307 10.9957C73.6307 10.3944 73.794 9.86648 74.1207 9.41193C74.4474 8.95265 74.8973 8.5928 75.4702 8.33239C76.0431 8.07197 76.6965 7.94176 77.4304 7.94176C78.4295 7.94176 79.2273 8.16903 79.8239 8.62358C80.4252 9.07339 80.8584 9.69366 81.1236 10.4844ZM87.0948 19.2486C86.4367 19.2486 85.8353 19.1207 85.2908 18.8651C84.7463 18.6046 84.3131 18.2306 83.9911 17.7429C83.6692 17.2505 83.5082 16.6539 83.5082 15.9531C83.5082 15.4134 83.61 14.9588 83.8136 14.5895C84.0172 14.2202 84.306 13.9171 84.68 13.6804C85.0541 13.4437 85.4968 13.2566 86.0082 13.1193C86.5195 12.982 87.083 12.8755 87.6985 12.7997C88.3093 12.724 88.8254 12.6577 89.2468 12.6009C89.6729 12.544 89.9973 12.4541 90.2198 12.331C90.4424 12.2079 90.5536 12.009 90.5536 11.7344V11.4787C90.5536 10.7353 90.3311 10.1506 89.886 9.72443C89.4457 9.29356 88.8112 9.07812 87.9826 9.07812C87.1966 9.07812 86.555 9.25095 86.0579 9.59659C85.5655 9.94223 85.2198 10.3494 85.021 10.8182L83.8207 10.3849C84.0669 9.78835 84.4078 9.3125 84.8434 8.95739C85.279 8.59754 85.7667 8.33949 86.3065 8.18324C86.8462 8.02225 87.3931 7.94176 87.9471 7.94176C88.3638 7.94176 88.797 7.99621 89.2468 8.10511C89.7013 8.21401 90.1228 8.40341 90.511 8.6733C90.8993 8.93845 91.2141 9.31013 91.4556 9.78835C91.6971 10.2618 91.8178 10.8632 91.8178 11.5923V19H90.5536V17.2741H90.4755C90.324 17.5961 90.0991 17.9086 89.8008 18.2116C89.5025 18.5147 89.1284 18.7633 88.6786 18.9574C88.2288 19.1515 87.7009 19.2486 87.0948 19.2486ZM87.2653 18.0909C87.9376 18.0909 88.52 17.9418 89.0124 17.6435C89.5049 17.3452 89.8836 16.9498 90.1488 16.4574C90.4187 15.9602 90.5536 15.4134 90.5536 14.8168V13.2401C90.4589 13.33 90.3003 13.4105 90.0778 13.4815C89.86 13.5526 89.6067 13.6165 89.3178 13.6733C89.0337 13.7254 88.7496 13.7704 88.4656 13.8082C88.1815 13.8461 87.9258 13.8793 87.6985 13.9077C87.083 13.9834 86.5574 14.1018 86.1218 14.2628C85.6862 14.4238 85.3524 14.6463 85.1204 14.9304C84.8884 15.2098 84.7724 15.5696 84.7724 16.0099C84.7724 16.6728 85.0091 17.1866 85.4826 17.5511C85.9561 17.911 86.5503 18.0909 87.2653 18.0909ZM96.445 12.1818V19H95.1808V8.09091H96.4094V9.80256H96.5231C96.7788 9.24384 97.1765 8.7964 97.7163 8.46023C98.2608 8.11932 98.9331 7.94886 99.7333 7.94886C100.467 7.94886 101.111 8.10275 101.665 8.41051C102.224 8.71354 102.657 9.16098 102.965 9.75284C103.277 10.3447 103.434 11.0715 103.434 11.9332V19H102.169V12.0114C102.169 11.1165 101.918 10.4086 101.417 9.88778C100.919 9.36695 100.252 9.10653 99.4137 9.10653C98.8408 9.10653 98.3318 9.22964 97.8867 9.47585C97.4416 9.72206 97.0889 10.0772 96.8285 10.5412C96.5728 11.0005 96.445 11.5473 96.445 12.1818ZM110.925 23.3182C110.181 23.3182 109.53 23.2211 108.972 23.027C108.413 22.8376 107.942 22.5772 107.558 22.2457C107.175 21.9143 106.876 21.5426 106.663 21.1307L107.7 20.4489C107.857 20.7235 108.065 20.9934 108.325 21.2585C108.59 21.5237 108.934 21.7438 109.355 21.919C109.781 22.0942 110.304 22.1818 110.925 22.1818C111.891 22.1818 112.67 21.9403 113.261 21.4574C113.858 20.9744 114.156 20.224 114.156 19.206V16.7486H114.043C113.896 17.08 113.685 17.4115 113.411 17.7429C113.136 18.0696 112.776 18.3419 112.331 18.5597C111.891 18.7775 111.344 18.8864 110.69 18.8864C109.819 18.8864 109.045 18.6709 108.368 18.2401C107.696 17.8092 107.165 17.1937 106.777 16.3935C106.393 15.5885 106.202 14.6297 106.202 13.517C106.202 12.4138 106.389 11.4432 106.763 10.6051C107.142 9.76705 107.67 9.11364 108.347 8.64489C109.024 8.17614 109.812 7.94176 110.712 7.94176C111.379 7.94176 111.933 8.06013 112.374 8.29688C112.814 8.52888 113.167 8.81771 113.432 9.16335C113.702 9.509 113.912 9.84517 114.064 10.1719H114.192V8.09091H115.428V19.2841C115.428 20.2074 115.231 20.9673 114.838 21.5639C114.445 22.1605 113.91 22.6009 113.233 22.8849C112.556 23.1738 111.786 23.3182 110.925 23.3182ZM110.839 17.7287C111.54 17.7287 112.139 17.5606 112.636 17.2244C113.134 16.8835 113.515 16.3958 113.78 15.7614C114.045 15.1269 114.178 14.3717 114.178 13.4957C114.178 12.6435 114.047 11.8883 113.787 11.2301C113.527 10.5672 113.148 10.0464 112.651 9.66761C112.158 9.28409 111.554 9.09233 110.839 9.09233C110.11 9.09233 109.495 9.28883 108.993 9.68182C108.491 10.0748 108.112 10.6051 107.857 11.2727C107.601 11.9356 107.473 12.6766 107.473 13.4957C107.473 14.3291 107.603 15.0653 107.864 15.7045C108.124 16.339 108.505 16.8362 109.007 17.196C109.509 17.5511 110.12 17.7287 110.839 17.7287ZM118.775 19V8.09091H120.003V9.76705H120.096C120.313 9.2178 120.692 8.77509 121.232 8.43892C121.776 8.09801 122.392 7.92756 123.078 7.92756C123.183 7.92756 123.299 7.92992 123.426 7.93466C123.554 7.93939 123.661 7.94413 123.746 7.94886V9.23438C123.689 9.22491 123.59 9.2107 123.448 9.19176C123.306 9.17282 123.152 9.16335 122.986 9.16335C122.418 9.16335 121.911 9.28409 121.466 9.52557C121.026 9.76231 120.678 10.0914 120.422 10.5128C120.167 10.9342 120.039 11.4148 120.039 11.9545V19H118.775ZM128.95 19.2486C128.292 19.2486 127.691 19.1207 127.146 18.8651C126.602 18.6046 126.169 18.2306 125.847 17.7429C125.525 17.2505 125.364 16.6539 125.364 15.9531C125.364 15.4134 125.465 14.9588 125.669 14.5895C125.873 14.2202 126.161 13.9171 126.536 13.6804C126.91 13.4437 127.352 13.2566 127.864 13.1193C128.375 12.982 128.938 12.8755 129.554 12.7997C130.165 12.724 130.681 12.6577 131.102 12.6009C131.528 12.544 131.853 12.4541 132.075 12.331C132.298 12.2079 132.409 12.009 132.409 11.7344V11.4787C132.409 10.7353 132.187 10.1506 131.741 9.72443C131.301 9.29356 130.667 9.07812 129.838 9.07812C129.052 9.07812 128.411 9.25095 127.913 9.59659C127.421 9.94223 127.075 10.3494 126.876 10.8182L125.676 10.3849C125.922 9.78835 126.263 9.3125 126.699 8.95739C127.134 8.59754 127.622 8.33949 128.162 8.18324C128.702 8.02225 129.249 7.94176 129.803 7.94176C130.219 7.94176 130.652 7.99621 131.102 8.10511C131.557 8.21401 131.978 8.40341 132.366 8.6733C132.755 8.93845 133.07 9.31013 133.311 9.78835C133.553 10.2618 133.673 10.8632 133.673 11.5923V19H132.409V17.2741H132.331C132.179 17.5961 131.955 17.9086 131.656 18.2116C131.358 18.5147 130.984 18.7633 130.534 18.9574C130.084 19.1515 129.556 19.2486 128.95 19.2486ZM129.121 18.0909C129.793 18.0909 130.375 17.9418 130.868 17.6435C131.36 17.3452 131.739 16.9498 132.004 16.4574C132.274 15.9602 132.409 15.4134 132.409 14.8168V13.2401C132.314 13.33 132.156 13.4105 131.933 13.4815C131.715 13.5526 131.462 13.6165 131.173 13.6733C130.889 13.7254 130.605 13.7704 130.321 13.8082C130.037 13.8461 129.781 13.8793 129.554 13.9077C128.938 13.9834 128.413 14.1018 127.977 14.2628C127.542 14.4238 127.208 14.6463 126.976 14.9304C126.744 15.2098 126.628 15.5696 126.628 16.0099C126.628 16.6728 126.865 17.1866 127.338 17.5511C127.812 17.911 128.406 18.0909 129.121 18.0909ZM138.3 12.1818V19H137.036V4.45455H138.3V9.80256H138.414C138.67 9.23911 139.065 8.7893 139.6 8.45312C140.14 8.11695 140.822 7.94886 141.646 7.94886C142.384 7.94886 143.033 8.10038 143.592 8.40341C144.15 8.70644 144.586 9.15388 144.898 9.74574C145.211 10.3376 145.367 11.0668 145.367 11.9332V19H144.096V12.0114C144.096 11.1117 143.845 10.4039 143.343 9.88778C142.846 9.36695 142.174 9.10653 141.326 9.10653C140.744 9.10653 140.225 9.22964 139.771 9.47585C139.316 9.72206 138.956 10.0772 138.691 10.5412C138.431 11.0005 138.3 11.5473 138.3 12.1818Z" fill="#7F7F7F"/>
</svg>
